<?xml version="1.0" standalone="no"?>
<!DOCTYPE svg PUBLIC "-//W3C//DTD SVG 20010904//EN"
 "http://www.w3.org/TR/2001/REC-SVG-20010904/DTD/svg10.dtd">
<svg version="1.0" xmlns="http://www.w3.org/2000/svg"
 width="1345.000000pt" height="618.000000pt" viewBox="0 0 1345.000000 618.000000"
 preserveAspectRatio="xMidYMid meet">
<metadata>
Created by potrace 1.16, written by Peter Selinger 2001-2019
</metadata>
<g transform="translate(0.000000,618.000000) scale(0.100000,-0.100000)"
fill="#000000" stroke="none">
<path d="M0 3090 l0 -3090 6725 0 6725 0 0 3090 0 3090 -6725 0 -6725 0 0
-3090z m1503 2999 c40 -18 47 -50 47 -199 0 -149 -7 -181 -47 -199 -14 -6 -82
-11 -163 -11 -149 0 -181 7 -199 47 -15 32 -15 294 0 327 6 13 21 29 33 34 29
14 299 15 329 1z m1067 -156 c0 -21 3 -24 12 -15 19 19 66 15 78 -7 12 -24 -2
-66 -26 -75 -9 -3 -27 0 -40 9 -13 8 -24 10 -26 5 -5 -16 -79 -15 -89 1 -22
34 -3 79 33 79 10 0 18 7 18 15 0 8 9 15 20 15 15 0 20 -7 20 -27z m8811 -1
c8 -13 20 -17 45 -14 22 3 34 0 34 -8 0 -10 3 -10 15 0 8 7 26 10 40 8 16 -4
25 -1 25 8 0 21 22 28 35 11 7 -10 20 -17 30 -17 14 0 15 -3 6 -14 -9 -11 -10
-20 -1 -35 10 -20 8 -21 -42 -23 -29 0 -60 0 -68 1 -8 1 -23 2 -32 2 -20 -1
-40 -1 -110 -2 l-48 0 0 51 c0 49 1 50 30 50 18 0 34 -7 41 -18z m-6291 -2446
l0 -74 37 19 c72 37 151 15 193 -53 17 -29 20 -51 20 -165 l0 -133 -60 0 -60
0 0 105 c0 114 -11 152 -46 161 -64 16 -84 -22 -84 -161 l0 -105 -60 0 -60 0
0 240 0 240 60 0 60 0 0 -74z m2210 -166 l0 -240 -60 0 c-47 0 -60 3 -60 15 0
12 -6 12 -37 -5 -49 -26 -88 -25 -143 3 -113 56 -123 252 -18 330 40 30 119
34 163 9 l35 -21 0 74 0 75 60 0 60 0 0 -240z m780 166 l0 -74 37 19 c72 37
151 15 193 -53 17 -29 20 -51 20 -165 l0 -133 -60 0 -60 0 0 105 c0 114 -11
152 -46 161 -64 16 -84 -22 -84 -161 l0 -105 -60 0 -60 0 0 240 0 240 60 0 60
0 0 -74z m880 -166 l0 -240 -60 0 -60 0 0 240 0 240 60 0 60 0 0 -240z m590 0
l0 -240 -60 0 -60 0 0 240 0 240 60 0 60 0 0 -240z m-5440 211 c0 -4 26 -72
58 -151 l59 -142 60 148 59 149 72 3 72 3 0 -231 0 -230 -60 0 -59 0 -3 118
-3 117 -44 -117 -43 -118 -52 0 -52 0 -39 108 -40 107 -3 -107 -3 -108 -64 0
-65 0 0 230 0 230 75 0 c41 0 75 -4 75 -9z m3522 -82 l3 -91 69 91 69 91 68 0
c38 0 69 -2 69 -5 0 -3 -34 -49 -77 -103 -42 -53 -81 -102 -86 -109 -6 -9 19
-48 82 -128 l92 -115 -75 0 -75 0 -70 91 -71 92 0 -92 0 -91 -60 0 -60 0 0
230 0 230 60 0 59 0 3 -91z m-2817 -18 c80 -36 112 -100 103 -201 -9 -87 -71
-145 -167 -157 -82 -9 -162 31 -198 101 -21 40 -21 132 -1 171 48 92 166 130
263 86z m799 4 c26 -14 30 -14 40 1 9 11 26 14 66 12 l55 -3 3 -182 2 -183
-65 0 c-51 0 -65 3 -65 15 0 12 -6 11 -32 -5 -108 -65 -238 33 -238 181 0 54
43 131 87 157 44 25 106 28 147 7z m352 1 c5 -12 11 -12 42 1 46 19 111 12
151 -16 l31 -22 43 25 c51 30 90 33 147 10 69 -28 84 -66 88 -221 l4 -133 -66
0 -66 0 0 113 c0 128 -9 150 -58 150 -56 0 -62 -13 -62 -144 l0 -119 -65 0
-65 0 0 119 c0 131 -6 144 -62 144 -49 0 -58 -22 -58 -150 l0 -113 -65 0 -65
0 0 178 c0 98 3 182 7 185 13 14 113 8 119 -7z m824 -8 c25 -13 54 -38 66 -55
22 -33 40 -115 29 -133 -4 -6 -58 -10 -131 -10 l-125 0 12 -22 c7 -13 17 -26
23 -30 18 -13 54 -9 70 7 10 10 35 15 81 15 l66 0 -22 -40 c-29 -51 -73 -79
-137 -87 -87 -10 -160 28 -193 101 -32 70 -19 165 29 220 50 55 158 71 232 34z
m1815 8 c29 -13 34 -12 39 0 4 11 20 14 63 12 l58 -3 3 -182 2 -183 -64 0
c-36 0 -66 5 -68 11 -2 6 -14 5 -33 -5 -90 -47 -199 14 -224 126 -35 154 90
279 224 224z m668 0 c65 -28 107 -93 107 -167 l0 -39 -125 0 c-131 0 -142 -4
-108 -42 20 -22 66 -24 83 -3 14 16 140 22 140 6 0 -23 -50 -79 -90 -98 -66
-34 -145 -27 -207 17 -67 49 -88 168 -42 250 43 78 155 113 242 76z m-2943
-845 c0 -76 -13 -101 -54 -101 -30 0 -63 24 -47 34 6 4 18 3 25 -3 16 -13 46
-4 46 14 0 8 -9 10 -25 7 -35 -6 -55 14 -55 57 0 48 14 61 67 61 l43 0 0 -69z
m-762 -517 c5 -9 7 -26 5 -38 -4 -20 -4 -20 13 2 18 24 62 30 82 10 9 -9 15
-9 24 0 18 18 65 15 77 -5 9 -15 10 -12 11 15 0 22 5 32 15 32 10 0 15 -10 15
-27 0 -21 3 -24 12 -15 7 7 21 12 32 12 18 0 18 -1 2 -19 -17 -18 -17 -21 -1
-45 17 -25 17 -26 -3 -26 -12 0 -26 8 -31 18 -10 16 -10 16 -11 0 0 -10 -7
-18 -15 -18 -8 0 -15 7 -15 15 0 12 -4 11 -20 -5 -24 -24 -29 -24 -58 -5 -19
14 -24 14 -46 0 -19 -13 -29 -14 -45 -5 -12 6 -21 16 -21 23 0 7 -5 4 -11 -5
-7 -13 -23 -18 -54 -18 l-45 0 0 60 0 60 40 0 c26 0 42 -6 48 -16z"/>
<path d="M7063 3326 c-34 -29 -39 -92 -9 -125 28 -31 79 -28 105 5 30 38 27
80 -8 115 -36 35 -52 36 -88 5z"/>
<path d="M4691 3333 c-43 -36 -36 -135 11 -152 57 -21 107 34 94 104 -11 58
-64 82 -105 48z"/>
<path d="M5553 3340 c-28 -11 -43 -40 -43 -82 0 -52 24 -78 70 -78 47 0 70 27
70 81 0 60 -48 98 -97 79z"/>
<path d="M8544 3338 c-71 -34 -47 -158 30 -158 45 0 66 26 66 83 0 37 -5 49
-26 66 -30 23 -39 24 -70 9z"/>
</g>
</svg>
